<?xml version="1.0" standalone="no"?>
<!DOCTYPE svg PUBLIC "-//W3C//DTD SVG 20010904//EN"
 "http://www.w3.org/TR/2001/REC-SVG-20010904/DTD/svg10.dtd">
<svg version="1.0" xmlns="http://www.w3.org/2000/svg"
 width="2332.000000pt" height="1638.000000pt" viewBox="0 0 2332.000000 1638.000000"
 preserveAspectRatio="xMidYMid meet">

<g transform="translate(0.000000,1638.000000) scale(0.100000,-0.100000)"
fill="#000000" stroke="none">
<path d="M17475 15423 c-103 -5 -424 -43 -550 -64 -588 -99 -1231 -320 -1766
-609 -526 -283 -1053 -637 -1494 -1001 -459 -379 -624 -529 -1074 -974 -458
-454 -779 -800 -1270 -1370 -107 -124 -405 -494 -504 -625 -31 -41 -96 -127
-145 -190 -229 -294 -460 -614 -725 -1000 -58 -85 -136 -198 -173 -250 -140
-197 -344 -496 -439 -642 -91 -141 -355 -524 -463 -673 -16 -22 -100 -141
-187 -265 -291 -412 -393 -548 -655 -865 -86 -104 -237 -289 -335 -410 -175
-215 -238 -290 -496 -586 -227 -261 -469 -549 -469 -558 0 -17 35 -23 140 -26
244 -6 422 -107 451 -256 6 -32 13 -59 15 -59 2 0 26 9 54 20 28 11 58 20 67
20 8 0 89 -52 179 -115 91 -63 166 -115 169 -115 2 0 5 6 7 14 2 8 98 119 214
247 626 695 997 1141 1296 1562 323 454 742 1102 1426 2207 236 382 490 748
907 1305 546 731 932 1193 1569 1880 682 735 1170 1179 1768 1607 1095 783
2055 1201 3078 1340 144 20 209 23 510 23 351 0 481 -9 696 -51 159 -30 591
-274 836 -471 260 -208 490 -460 676 -739 346 -519 520 -1025 573 -1669 15
-180 6 -683 -15 -865 -100 -865 -414 -1763 -902 -2581 -472 -792 -1134 -1520
-1919 -2109 -685 -514 -1209 -802 -2820 -1547 -605 -280 -900 -399 -1370 -550
-787 -253 -1309 -438 -1955 -693 -408 -161 -621 -238 -925 -335 -644 -205
-1255 -416 -1255 -434 0 -9 380 -270 430 -295 16 -9 92 -15 219 -20 186 -6
195 -7 244 -34 67 -36 127 -96 157 -157 24 -47 25 -59 25 -221 l0 -170 160 49
c671 205 1235 433 2035 822 951 463 1208 574 2565 1105 647 253 1044 429 1620
720 902 454 1515 855 2152 1408 209 181 306 275 497 480 551 593 955 1151
1226 1692 376 751 636 1661 727 2540 24 234 24 817 0 1020 -132 1122 -637
2041 -1452 2642 -312 230 -681 408 -1115 539 -298 89 -673 197 -775 223 -246
61 -522 105 -794 126 -122 9 -496 11 -646 3z m3925 -4507 c0 -8 -4 -18 -10
-21 -5 -3 -10 3 -10 14 0 12 5 21 10 21 6 0 10 -6 10 -14z m271 -53 c-8 -15
-10 -15 -11 -2 0 17 10 32 18 25 2 -3 -1 -13 -7 -23z m-141 -3 c0 -5 -4 -10
-10 -10 -5 0 -10 5 -10 10 0 6 5 10 10 10 6 0 10 -4 10 -10z m-150 -70 c0 -5
-4 -10 -9 -10 -6 0 -13 5 -16 10 -3 6 1 10 9 10 9 0 16 -4 16 -10z m445 -38
c-2 -3 -11 1 -20 8 -12 10 -13 16 -3 27 10 13 13 11 20 -8 5 -12 6 -24 3 -27z
m155 34 c0 -3 -4 -8 -10 -11 -5 -3 -10 -1 -10 4 0 6 5 11 10 11 6 0 10 -2 10
-4z m-472 -35 c-7 -12 -16 -21 -20 -21 -10 0 3 33 16 42 17 11 18 2 4 -21z
m-138 -7 c0 -8 -4 -12 -10 -9 -5 3 -10 13 -10 21 0 8 5 12 10 9 6 -3 10 -13
10 -21z m290 11 c0 -8 -4 -15 -9 -15 -5 0 -11 7 -15 15 -3 9 0 15 9 15 8 0 15
-7 15 -15z m146 -59 c8 -18 8 -28 -3 -42 -7 -10 -12 -23 -9 -30 2 -6 -2 -11
-10 -11 -19 0 -18 36 1 43 8 4 15 13 15 21 0 8 -4 11 -10 8 -5 -3 -10 3 -10
14 0 28 12 26 26 -3z m-456 -7 c0 -6 -4 -7 -10 -4 -5 3 -10 11 -10 16 0 6 5 7
10 4 6 -3 10 -11 10 -16z m300 -3 c0 -14 -4 -28 -10 -31 -6 -4 -10 7 -10 24 0
17 5 31 10 31 6 0 10 -11 10 -24z m-169 -23 c-8 -15 -10 -15 -11 -2 0 17 10
32 18 25 2 -3 -1 -13 -7 -23z m-141 -9 c0 -8 -4 -12 -10 -9 -5 3 -10 10 -10
16 0 5 5 9 10 9 6 0 10 -7 10 -16z m630 6 c0 -5 -4 -10 -10 -10 -5 0 -10 5
-10 10 0 6 5 10 10 10 6 0 10 -4 10 -10z m-340 -55 c0 -8 -4 -15 -10 -15 -5 0
-10 7 -10 15 0 8 5 15 10 15 6 0 10 -7 10 -15z m-290 -24 c0 -9 -10 -36 -22
-61 -15 -33 -22 -40 -25 -27 -3 10 3 35 13 55 12 25 13 37 5 40 -6 2 -9 8 -6
12 9 14 35 0 35 -19z m135 -3 c-3 -13 -8 -30 -9 -38 -2 -8 -6 -22 -9 -30 -3
-8 -8 -22 -10 -30 -3 -9 -6 -6 -6 8 -1 36 20 112 31 112 6 0 7 -10 3 -22z
m625 12 c0 -5 -2 -10 -4 -10 -3 0 -8 5 -11 10 -3 6 -1 10 4 10 6 0 11 -4 11
-10z m-306 -21 c-8 -14 -24 -10 -24 6 0 9 6 12 15 9 8 -4 12 -10 9 -15z m-170
-22 c-9 -24 -23 -11 -17 14 3 12 9 17 15 11 5 -5 6 -16 2 -25z m142 -24 c-10
-10 -19 5 -10 18 6 11 8 11 12 0 2 -7 1 -15 -2 -18z m24 -12 c0 -5 -9 -19 -20
-32 l-19 -24 -1 27 c0 23 10 35 33 37 4 1 7 -3 7 -8z m155 -13 c-4 -13 -9 -31
-11 -40 -3 -10 -9 -18 -14 -18 -5 0 -8 6 -6 13 3 6 7 24 10 40 4 15 11 27 17
27 6 0 8 -9 4 -22z m-341 -13 c3 -8 1 -25 -4 -37 l-9 -23 0 22 c-1 12 -4 28
-7 37 -3 9 -2 16 4 16 5 0 12 -7 16 -15z m486 -25 c0 -5 -5 -10 -11 -10 -5 0
-7 5 -4 10 3 6 8 10 11 10 2 0 4 -4 4 -10z m-328 -19 c-8 -5 -11 -17 -7 -33 4
-15 2 -29 -4 -33 -6 -3 -8 -17 -5 -30 4 -17 0 -26 -15 -35 -12 -6 -21 -16 -21
-22 0 -7 5 -6 15 2 8 7 15 8 15 3 0 -14 -41 -65 -47 -60 -4 5 11 74 24 107 3
8 7 32 9 54 5 47 10 56 32 56 13 0 14 -2 4 -9z m-335 -43 c-3 -7 -5 -2 -5 12
0 14 2 19 5 13 2 -7 2 -19 0 -25z m487 -46 c-4 -15 -8 -31 -9 -37 -4 -41 -30
-135 -37 -135 -5 0 -6 10 -2 23 4 12 8 38 10 57 2 19 4 36 5 38 2 3 5 13 14
57 4 22 10 45 14 50 9 16 13 -24 5 -53z m-337 -1 c-13 -30 -15 -31 -20 -12 -3
12 -2 21 3 21 4 0 11 10 15 23 3 12 8 17 11 11 2 -6 -2 -25 -9 -43z m-307 9
c0 -5 -2 -10 -4 -10 -3 0 -8 5 -11 10 -3 6 -1 10 4 10 6 0 11 -4 11 -10z m141
-47 c-9 -16 -10 -15 -11 8 0 14 3 29 8 33 12 12 14 -22 3 -41z m370 -4 c-5
-13 -10 -19 -10 -12 -1 15 10 45 15 40 3 -2 0 -15 -5 -28z m-226 -59 c3 -5 1
-10 -4 -10 -6 0 -11 5 -11 10 0 6 2 10 4 10 3 0 8 -4 11 -10z m215 -24 c0 -3
-4 -8 -10 -11 -5 -3 -10 -1 -10 4 0 6 5 11 10 11 6 0 10 -2 10 -4z m-220 -15
c0 -6 -5 -13 -11 -17 -6 -3 -8 -17 -5 -30 5 -18 2 -24 -9 -24 -15 0 -15 19 1
68 4 14 24 17 24 3z m-165 -22 c-10 -15 -25 -10 -19 6 4 8 10 12 15 9 5 -3 7
-10 4 -15z m311 -30 c-2 -28 -9 -54 -14 -58 -6 -3 -10 -13 -10 -21 3 -40 -3
-60 -17 -60 -12 0 -13 -4 -5 -19 14 -28 12 -36 -5 -21 -20 17 -19 33 4 61 14
17 17 29 10 46 -6 18 -4 25 11 33 22 12 27 36 9 42 -9 3 -9 10 0 26 18 33 21
27 17 -29z m51 -1 c-3 -8 -6 -5 -6 6 -1 11 2 17 5 13 3 -3 4 -12 1 -19z m113
-32 c0 -28 -11 -66 -19 -66 -3 0 -6 22 -6 49 0 34 4 47 13 44 6 -3 12 -15 12
-27z m153 -6 c3 -11 1 -18 -4 -14 -5 3 -9 12 -9 20 0 20 7 17 13 -6z m-182
-93 c-10 -9 -11 -8 -5 6 3 10 9 15 12 12 3 -3 0 -11 -7 -18z m-1 -47 c0 -5 -4
-10 -10 -10 -5 0 -10 5 -10 10 0 6 5 10 10 10 6 0 10 -4 10 -10z m-21 -67
c-14 -53 -20 -64 -14 -26 2 18 0 35 -6 39 -8 4 -7 9 2 15 24 15 28 10 18 -28z
m-184 18 c3 -5 1 -12 -5 -16 -5 -3 -10 1 -10 9 0 18 6 21 15 7z m-6 -94 c1 -4
-5 -2 -13 5 -7 7 -11 19 -8 27 4 11 7 10 13 -5 4 -10 8 -23 8 -27z m-189 -21
c0 -3 -4 -8 -10 -11 -5 -3 -10 -1 -10 4 0 6 5 11 10 11 6 0 10 -2 10 -4z m167
-58 c-3 -8 -6 -5 -6 6 -1 11 2 17 5 13 3 -3 4 -12 1 -19z m164 -5 c-8 -15 -10
-15 -11 -2 0 17 10 32 18 25 2 -3 -1 -13 -7 -23z m-11 -67 c0 -3 -4 -8 -10
-11 -5 -3 -10 -1 -10 4 0 6 5 11 10 11 6 0 10 -2 10 -4z m-11095 -146 c3 -6
-1 -7 -9 -4 -18 7 -21 14 -7 14 6 0 13 -4 16 -10z m101 -167 c-7 -7 -26 7 -26
19 0 6 6 6 15 -2 9 -7 13 -15 11 -17z m-36 -43 c0 -5 -2 -10 -4 -10 -3 0 -8 5
-11 10 -3 6 -1 10 4 10 6 0 11 -4 11 -10z m-50 -90 c0 -5 -5 -10 -11 -10 -5 0
-7 5 -4 10 3 6 8 10 11 10 2 0 4 -4 4 -10z m-45 -59 c-3 -6 -11 -11 -17 -11
-6 0 -6 6 2 15 14 17 26 13 15 -4z m58 -216 c-3 -9 -8 -14 -10 -11 -3 3 -2 9
2 15 9 16 15 13 8 -4z m-683 -415 c0 -5 -4 -10 -10 -10 -5 0 -10 5 -10 10 0 6
5 10 10 10 6 0 10 -4 10 -10z m240 -265 c0 -8 -4 -15 -10 -15 -5 0 -7 7 -4 15
4 8 8 15 10 15 2 0 4 -7 4 -15z m-222 -60 c-3 -3 -9 2 -12 12 -6 14 -5 15 5 6
7 -7 10 -15 7 -18z m-48 -85 c0 -5 -5 -10 -11 -10 -5 0 -7 5 -4 10 3 6 8 10
11 10 2 0 4 -4 4 -10z"/>
<path d="M6370 5761 c0 -6 4 -13 10 -16 6 -3 7 1 4 9 -7 18 -14 21 -14 7z"/>
<path d="M6500 5638 c-45 -21 -69 -43 -70 -64 0 -9 90 -86 128 -108 9 -6 12
16 12 93 0 113 1 111 -70 79z"/>
<path d="M7341 4804 c0 -11 3 -14 6 -6 3 7 2 16 -1 19 -3 4 -6 -2 -5 -13z"/>
<path d="M7931 4364 c0 -11 3 -14 6 -6 3 7 2 16 -1 19 -3 4 -6 -2 -5 -13z"/>
<path d="M7926 4297 c-3 -13 -17 -29 -31 -37 -33 -17 -26 -24 8 -7 23 11 45
52 34 64 -3 2 -7 -7 -11 -20z"/>
<path d="M7804 4173 c1 -48 1 -48 -47 -71 -27 -13 -182 -75 -345 -138 -163
-63 -311 -121 -329 -129 -17 -9 -43 -16 -57 -17 -14 -1 -26 -6 -26 -11 0 -5
-9 -7 -20 -4 -11 3 -27 -1 -35 -9 -8 -8 -54 -31 -102 -51 -120 -50 -210 -110
-258 -173 -59 -77 -72 -90 -77 -84 -3 2 -8 -10 -12 -28 -5 -26 -9 -30 -16 -18
-9 13 -10 13 -11 0 -1 -8 -1 -19 0 -24 1 -5 -5 -6 -13 -3 -11 4 -19 -5 -28
-28 -6 -19 -16 -35 -21 -35 -4 0 -5 -5 -2 -10 4 -6 3 -10 -2 -9 -27 5 -35 -1
-23 -16 10 -13 9 -15 -9 -15 -19 0 -26 -15 -22 -42 0 -4 -7 -4 -16 -1 -11 4
-14 3 -9 -5 4 -7 2 -12 -4 -12 -14 0 -50 -61 -43 -73 3 -6 1 -7 -4 -4 -6 4
-22 -8 -37 -27 -68 -90 -126 -136 -241 -191 -64 -30 -118 -55 -122 -55 -4 0
-25 -9 -47 -19 -23 -11 -66 -29 -96 -41 -30 -12 -83 -35 -117 -51 -35 -16 -67
-29 -73 -29 -5 0 -40 -14 -77 -32 -38 -17 -77 -35 -88 -39 -11 -4 -50 -21 -87
-38 -37 -17 -95 -40 -129 -51 -34 -12 -92 -35 -127 -51 -36 -16 -68 -29 -72
-29 -15 0 -141 -62 -136 -67 5 -5 118 36 201 72 17 8 55 23 85 35 30 11 69 27
85 34 35 16 100 42 210 85 44 17 121 47 170 67 50 20 115 45 144 55 30 11 65
26 78 34 26 17 43 19 43 5 0 -5 -8 -10 -18 -10 -10 0 -25 -9 -35 -20 -10 -12
-21 -18 -26 -15 -5 2 -44 -13 -87 -34 -90 -44 -115 -55 -234 -101 -47 -18
-111 -46 -142 -61 -31 -16 -63 -29 -69 -29 -7 0 -35 -11 -63 -24 -29 -14 -65
-28 -81 -32 -17 -4 -45 -16 -63 -26 -18 -10 -39 -18 -47 -18 -8 0 -15 -4 -15
-8 0 -4 -10 -8 -22 -9 -11 -1 -24 -6 -27 -10 -3 -5 -33 -19 -66 -32 -33 -13
-93 -39 -133 -57 -40 -19 -103 -41 -140 -50 -37 -9 -76 -20 -87 -24 -11 -5
-40 -11 -65 -14 -46 -6 -116 19 -178 63 -15 10 -38 22 -52 26 -14 4 -27 11
-30 15 -3 4 -34 23 -70 43 -36 19 -86 46 -111 60 -25 14 -74 35 -107 47 -61
22 -63 23 -134 5 -40 -9 -79 -21 -87 -26 -20 -11 -155 -67 -196 -80 -16 -6
-37 -14 -46 -19 -8 -4 -47 -20 -85 -35 -95 -36 -193 -75 -229 -91 -16 -7 -65
-27 -108 -43 -81 -32 -237 -108 -237 -116 0 -2 14 -2 31 0 25 3 28 1 19 -10
-10 -12 -6 -12 25 -4 73 21 43 1 -65 -41 -61 -24 -113 -47 -115 -51 -3 -4 -1
-85 5 -181 5 -95 14 -270 20 -388 6 -118 13 -232 15 -252 2 -21 7 -85 11 -142
5 -71 11 -107 20 -110 7 -3 261 96 566 218 304 123 1075 433 1713 690 638 258
1390 560 1670 673 1257 507 1257 507 1276 533 18 24 18 46 8 545 l-10 520 -33
30 c-39 35 -97 85 -100 85 -1 0 -2 -21 -2 -47z m120 -72 c5 -8 -12 -17 -92
-49 -10 -3 -13 2 -10 19 2 19 11 25 43 30 22 3 43 7 47 8 4 0 9 -3 12 -8z
m-260 -111 c-14 -14 -76 -31 -69 -19 4 5 15 9 25 9 10 0 22 5 25 10 3 6 11 10
18 10 7 0 8 -3 1 -10z m-124 -50 c-8 -5 -19 -10 -25 -10 -5 0 -3 5 5 10 8 5
20 10 25 10 6 0 3 -5 -5 -10z m-45 -20 c-3 -5 -11 -10 -16 -10 -6 0 -7 5 -4
10 3 6 11 10 16 10 6 0 7 -4 4 -10z m-145 -55 c-14 -8 -29 -14 -35 -14 -5 0 1
6 15 14 14 8 30 14 35 14 6 0 -1 -6 -15 -14z m-60 -24 c-8 -5 -26 -11 -40 -15
-21 -5 -20 -3 5 9 32 15 60 20 35 6z m-220 -85 c0 -2 -9 -6 -20 -9 -11 -3 -18
-1 -14 4 5 9 34 13 34 5z m-60 -26 c-8 -5 -19 -10 -25 -10 -5 0 -3 5 5 10 8 5
20 10 25 10 6 0 3 -5 -5 -10z m-133 -55 c-37 -18 -84 -47 -105 -64 -36 -28
-148 -179 -323 -434 -41 -60 -100 -144 -133 -188 -58 -80 -140 -151 -185 -162
l-23 -6 23 26 c13 14 50 52 81 84 31 33 141 179 245 327 223 317 280 379 373
411 36 12 72 26 80 31 8 5 20 9 25 9 6 0 -20 -15 -58 -34z m-766 -736 c-5 -13
-10 -19 -10 -12 -1 9 -8 8 -28 -2 -32 -17 -125 -59 -133 -60 -3 0 -10 -4 -17
-8 -6 -4 -14 -3 -17 2 -4 5 4 12 16 16 27 7 121 48 128 55 9 9 65 39 68 36 1
-2 -2 -14 -7 -27z m-225 -88 c-4 -5 0 -12 6 -14 7 -3 3 -6 -9 -6 -23 -1 -30 9
-16 22 10 10 25 8 19 -2z m-346 -255 c0 -2 -7 -7 -16 -10 -8 -3 -12 -2 -9 4 6
10 25 14 25 6z m-200 -80 c0 -2 -7 -7 -16 -10 -8 -3 -12 -2 -9 4 6 10 25 14
25 6z m-80 -30 c0 -2 -7 -7 -16 -10 -8 -3 -12 -2 -9 4 6 10 25 14 25 6z m-80
-36 c-8 -5 -19 -10 -25 -10 -5 0 -3 5 5 10 8 5 20 10 25 10 6 0 3 -5 -5 -10z
m-1460 -20 c0 -5 -6 -10 -14 -10 -8 0 -23 -3 -33 -6 -10 -3 -7 2 7 10 30 18
40 20 40 6z m1385 -9 c-13 -11 -81 -34 -71 -24 4 5 22 13 39 20 40 15 43 15
32 4z m-1486 -25 c-4 -5 -190 -86 -196 -86 -2 0 -3 3 -3 8 0 4 28 18 63 31 34
14 76 30 92 37 31 13 52 17 44 10z m1311 -46 c-8 -5 -19 -10 -25 -10 -5 0 -3
5 5 10 8 5 20 10 25 10 6 0 3 -5 -5 -10z m-60 -24 c0 -2 -9 -6 -20 -9 -11 -3
-18 -1 -14 4 5 9 34 13 34 5z m-1555 -57 c-228 -92 -295 -116 -295 -110 0 4
24 15 53 26 28 10 73 29 98 42 26 13 51 23 55 23 5 0 43 13 84 30 41 16 82 29
90 29 8 0 -30 -18 -85 -40z m1470 21 c-27 -12 -43 -12 -25 0 8 5 22 9 30 9 10
0 8 -3 -5 -9z m-175 -70 c-8 -5 -19 -10 -25 -10 -5 0 -3 5 5 10 8 5 20 10 25
10 6 0 3 -5 -5 -10z m-1650 -89 c-8 -5 -26 -11 -40 -15 -21 -5 -20 -3 5 9 32
15 60 20 35 6z"/>
<path d="M7592 4126 c-39 -22 -38 -29 2 -12 22 9 42 19 45 21 9 10 -25 3 -47
-9z"/>
<path d="M7475 4080 c-3 -5 -2 -10 4 -10 5 0 13 5 16 10 3 6 2 10 -4 10 -5 0
-13 -4 -16 -10z"/>
<path d="M7430 4060 c-8 -5 -10 -10 -5 -10 6 0 17 5 25 10 8 5 11 10 5 10 -5
0 -17 -5 -25 -10z"/>
<path d="M7260 3993 c-8 -2 -28 -11 -45 -18 -16 -7 -42 -16 -57 -20 -15 -4
-33 -13 -39 -21 -9 -11 1 -10 39 5 94 37 122 50 122 55 0 4 -1 6 -2 5 -2 0
-10 -3 -18 -6z"/>
<path d="M7040 3904 l-25 -15 30 6 c17 4 34 11 40 16 15 15 -17 10 -45 -7z"/>
<path d="M6953 3872 c-51 -21 -69 -37 -30 -28 28 7 100 46 82 45 -5 0 -29 -8
-52 -17z"/>
<path d="M6824 3814 c-17 -14 -17 -15 -1 -10 10 3 23 6 28 6 5 0 9 5 9 10 0
14 -13 12 -36 -6z"/>
<path d="M6715 3759 c-5 -5 -21 -18 -35 -29 -14 -11 -20 -19 -15 -19 6 0 26
13 45 29 19 16 31 29 25 29 -5 0 -14 -4 -20 -10z"/>
<path d="M5949 3613 c-9 -2 -33 -31 -54 -64 -44 -66 -61 -75 -133 -64 -279 42
-602 -85 -890 -349 -99 -90 -105 -93 -147 -60 -30 22 -40 25 -59 16 -12 -5
-30 -25 -38 -44 -18 -39 -61 -328 -56 -379 4 -48 30 -48 173 -4 162 51 214 99
181 167 -24 47 -20 62 33 126 51 62 117 104 301 194 82 41 88 42 185 43 131 0
194 -9 218 -33 17 -18 18 -24 7 -75 -17 -73 -11 -89 30 -77 37 11 107 62 135
98 16 22 17 29 6 56 -11 29 -10 32 21 56 17 14 47 40 66 58 35 33 35 33 29
102 -5 59 -3 73 14 94 34 43 18 147 -22 139z"/>
<path d="M9605 3575 c17 -13 35 -24 40 -25 6 0 -3 11 -20 25 -16 13 -34 24
-40 25 -5 0 4 -11 20 -25z"/>
<path d="M9225 3505 c-16 -8 -23 -14 -14 -15 8 0 24 7 35 15 23 18 18 18 -21
0z"/>
<path d="M8980 3394 c-80 -36 -163 -72 -184 -81 -22 -9 -35 -18 -30 -20 12 -4
341 140 357 156 17 17 11 15 -143 -55z"/>
<path d="M9670 3392 c-18 -82 -18 -84 -4 -89 10 -3 31 144 21 153 -2 2 -10
-27 -17 -64z"/>
<path d="M940 3363 c0 -3 18 -22 41 -41 39 -34 73 -80 111 -152 30 -57 10 7
-23 72 -36 71 -85 128 -110 128 -10 0 -19 -3 -19 -7z"/>
<path d="M9141 3306 c-6 -8 -34 -23 -61 -35 -59 -25 -66 -36 -12 -17 52 19
106 53 94 60 -5 3 -15 0 -21 -8z"/>
<path d="M8720 3275 c-14 -8 -20 -14 -14 -15 5 0 19 7 30 15 24 18 16 19 -16
0z"/>
<path d="M1020 3221 c0 -6 4 -13 10 -16 6 -3 7 1 4 9 -7 18 -14 21 -14 7z"/>
<path d="M8968 3225 c-2 -3 -24 -7 -47 -10 -31 -4 -52 -14 -71 -35 -32 -34
-32 -35 16 -15 20 8 33 19 29 25 -3 6 4 10 17 10 24 1 91 28 72 29 -6 1 -13
-1 -16 -4z"/>
<path d="M9152 3205 c0 -16 2 -22 5 -12 2 9 2 23 0 30 -3 6 -5 -1 -5 -18z"/>
<path d="M9620 3217 c0 -8 101 -80 105 -75 3 2 -17 20 -43 39 -51 37 -62 43
-62 36z"/>
<path d="M1040 3185 c0 -2 40 -86 89 -187 49 -101 125 -259 170 -351 45 -95
85 -166 91 -162 5 3 10 11 10 16 0 6 -5 7 -12 3 -8 -5 -9 -2 -5 9 3 10 2 17
-3 17 -6 0 -10 9 -10 19 0 10 -7 21 -15 25 -8 3 -15 14 -15 24 0 11 -9 31 -20
45 -11 14 -20 30 -20 36 0 11 -32 83 -40 91 -3 3 -19 38 -34 78 -16 39 -32 72
-35 72 -4 0 -18 29 -31 65 -13 36 -28 65 -32 65 -4 0 -8 7 -8 15 0 21 -52 113
-67 119 -7 3 -13 3 -13 1z"/>
<path d="M9507 3119 c12 -12 25 -20 28 -17 3 3 -7 13 -22 23 l-28 17 22 -23z"/>
<path d="M9175 3120 c3 -5 8 -10 11 -10 2 0 4 5 4 10 0 6 -5 10 -11 10 -5 0
-7 -4 -4 -10z"/>
<path d="M9250 3120 c0 -5 5 -10 11 -10 5 0 7 5 4 10 -3 6 -8 10 -11 10 -2 0
-4 -4 -4 -10z"/>
<path d="M1460 3051 c0 -33 3 -62 8 -64 4 -3 7 24 8 59 0 35 -3 64 -8 64 -4 0
-8 -27 -8 -59z"/>
<path d="M8665 3103 c-20 -5 -45 -30 -45 -46 0 -4 12 1 26 12 15 12 33 21 40
21 8 0 14 5 14 10 0 10 -2 11 -35 3z"/>
<path d="M9130 3043 c-3 -29 -1 -48 3 -44 5 5 7 28 5 52 l-3 44 -5 -52z"/>
<path d="M9681 3018 c15 -14 43 -35 63 -47 28 -18 36 -29 36 -51 0 -27 2 -28
33 -23 26 4 45 -2 84 -26 28 -17 55 -31 62 -31 6 0 11 -4 11 -8 0 -5 30 -28
66 -52 66 -44 101 -81 90 -98 -3 -5 12 -9 34 -9 25 0 37 4 33 10 -4 6 0 8 10
4 9 -3 19 -2 22 3 4 6 -3 10 -14 10 -26 0 -37 17 -14 22 20 4 -80 43 -112 43
-11 0 -19 6 -17 13 1 7 -3 22 -9 34 -10 18 -9 20 6 14 15 -5 16 -4 5 9 -7 8
-19 15 -27 15 -8 0 -11 5 -7 12 5 8 2 9 -9 5 -10 -3 -17 -2 -17 3 0 6 -6 9
-12 8 -8 -2 -13 8 -13 25 0 17 -7 32 -19 39 -14 8 -17 7 -12 -1 15 -23 -27
-10 -82 27 -53 34 -142 60 -142 40 0 -4 -4 -8 -10 -8 -5 0 -10 7 -10 15 0 8
-4 15 -9 15 -5 0 -18 3 -28 7 -13 4 -10 -1 8 -19z"/>
<path d="M9281 3013 c4 -23 -4 -33 -25 -33 -13 0 -27 -7 -30 -16 -3 -9 -12
-14 -19 -11 -8 3 -14 -1 -14 -9 0 -17 -3 -17 38 0 38 16 83 59 72 69 -9 9 -23
9 -22 0z"/>
<path d="M9228 3003 c7 -3 16 -2 19 1 4 3 -2 6 -13 5 -11 0 -14 -3 -6 -6z"/>
<path d="M9101 2953 c0 -12 -4 -30 -7 -40 -5 -14 -4 -15 5 -7 7 6 11 24 8 40
-3 21 -4 23 -6 7z"/>
<path d="M10010 2900 c8 -5 20 -10 25 -10 6 0 3 5 -5 10 -8 5 -19 10 -25 10
-5 0 -3 -5 5 -10z"/>
<path d="M10072 2894 c-9 -10 -6 -17 17 -33 16 -12 37 -21 46 -21 10 0 27 -10
39 -22 12 -13 37 -37 57 -54 45 -38 57 -56 32 -47 -25 9 -13 -3 19 -20 19 -10
24 -17 17 -28 -8 -12 -10 -12 -18 1 -6 8 -14 11 -18 6 -4 -5 -2 -11 5 -13 25
-9 12 -25 -15 -18 -16 4 -26 5 -23 3 3 -2 18 -14 34 -28 16 -14 27 -20 24 -15
-2 6 10 24 27 42 l32 32 39 -21 c39 -21 94 -75 94 -93 0 -5 17 -10 38 -10 l39
-1 -26 21 c-14 12 -37 29 -51 38 -13 9 -20 17 -14 17 5 0 18 -6 29 -13 11 -8
43 -26 70 -41 l50 -28 -30 27 c-16 14 -61 48 -100 74 -38 26 -119 81 -178 122
-154 105 -219 139 -235 123z m247 -159 c50 -40 49 -46 -2 -12 -19 12 -43 27
-53 34 -15 9 -15 12 -4 12 8 1 35 -15 59 -34z m96 -65 c3 -5 2 -10 -4 -10 -5
0 -13 5 -16 10 -3 6 -2 10 4 10 5 0 13 -4 16 -10z"/>
<path d="M9395 2890 c-22 -4 -35 -8 -30 -9 6 -1 4 -5 -4 -10 -12 -8 -12 -12
-2 -25 14 -16 65 -20 109 -7 l24 6 -22 28 c-12 15 -24 26 -28 26 -4 -1 -25 -5
-47 -9z"/>
<path d="M9085 2860 c-3 -5 -1 -10 4 -10 6 0 11 5 11 10 0 6 -2 10 -4 10 -3 0
-8 -4 -11 -10z"/>
<path d="M8776 2841 c-3 -5 1 -11 9 -15 8 -3 15 -1 15 4 0 13 -18 22 -24 11z"/>
<path d="M9634 2769 c-3 -6 -18 -9 -32 -6 -36 7 -51 -1 -45 -24 4 -13 14 -19
32 -19 34 0 54 14 58 39 3 23 -2 27 -13 10z"/>
<path d="M8920 2718 c14 -16 102 -79 128 -92 29 -15 30 -15 25 4 -3 11 -13 20
-22 20 -9 0 -21 4 -26 8 -12 10 -112 67 -105 60z"/>
<path d="M9525 2680 c-3 -5 -1 -10 4 -10 6 0 11 5 11 10 0 6 -2 10 -4 10 -3 0
-8 -4 -11 -10z"/>
<path d="M8405 2649 c-68 -27 -76 -37 -37 -45 32 -6 32 -7 15 -27 -17 -20 -17
-20 2 -13 11 5 29 11 40 14 11 2 26 9 33 15 17 13 -3 38 -26 31 -9 -2 -7 1 5
7 21 11 40 40 25 38 -4 0 -29 -9 -57 -20z"/>
<path d="M2070 2625 c0 -3 11 -22 25 -43 20 -30 24 -49 23 -95 -1 -33 4 -63
10 -69 9 -9 12 3 12 53 0 55 -5 72 -30 112 -27 42 -40 56 -40 42z"/>
<path d="M3850 2618 c-57 -16 -59 -28 -4 -28 28 0 85 -12 132 -29 82 -28 182
-84 182 -102 0 -5 7 -9 15 -9 8 0 23 -9 32 -20 10 -11 23 -20 29 -20 6 0 17
-7 24 -15 7 -9 29 -23 49 -32 20 -9 38 -20 41 -24 3 -4 24 -12 47 -18 35 -10
54 -9 100 4 85 24 184 56 218 70 17 7 39 16 50 20 11 4 15 9 8 12 -6 2 -32 -5
-57 -16 -25 -12 -51 -21 -58 -21 -7 0 -26 -7 -41 -15 -43 -22 -119 -29 -162
-15 -20 7 -67 29 -104 50 -36 20 -113 63 -171 94 -58 31 -132 72 -165 91 -63
36 -100 42 -165 23z"/>
<path d="M10317 2617 c3 -5 0 -13 -7 -17 -9 -6 -3 -13 21 -24 l34 -17 -24 21
c-13 11 -17 20 -10 20 7 0 21 -7 31 -17 10 -9 21 -13 24 -10 10 9 -22 37 -43
37 -15 0 -16 2 -3 10 12 7 10 9 -7 7 -12 0 -19 -5 -16 -10z"/>
<path d="M9770 2610 c0 -12 8 -12 35 0 18 8 17 9 -7 9 -16 1 -28 -3 -28 -9z"/>
<path d="M3758 2583 c6 -2 18 -2 25 0 6 3 1 5 -13 5 -14 0 -19 -2 -12 -5z"/>
<path d="M10700 2570 c0 -14 -1 -14 174 -24 60 -4 112 -7 115 -8 20 -2 31 4
31 17 0 12 -16 15 -82 16 -46 0 -118 3 -160 5 -49 3 -78 1 -78 -6z"/>
<path d="M8430 2555 c-43 -24 -164 -79 -378 -170 -61 -26 -86 -45 -59 -45 10
0 44 13 75 29 31 17 131 64 222 106 153 70 199 95 175 95 -6 0 -21 -7 -35 -15z"/>
<path d="M8886 2544 c6 -24 5 -25 -15 -15 -19 11 -21 9 -21 -19 0 -18 -4 -29
-10 -25 -22 13 -8 -8 30 -46 22 -22 44 -48 49 -56 16 -29 42 10 48 72 7 69 23
83 23 21 0 -34 4 -46 15 -46 9 0 15 -9 15 -21 0 -17 -3 -19 -14 -10 -10 9 -16
8 -25 -3 -19 -23 -4 -56 24 -56 22 0 24 -3 19 -29 -5 -23 -2 -30 15 -36 22 -7
30 -45 10 -45 -7 0 -5 -10 5 -25 9 -13 16 -37 17 -52 l0 -28 10 25 c13 33 16
35 34 20 8 -7 15 -9 16 -4 0 5 3 18 6 29 3 11 8 49 10 84 4 53 2 67 -12 77 -9
7 -14 17 -10 23 4 7 -7 10 -32 7 -21 -2 -32 -2 -25 1 6 2 10 9 6 14 -3 5 3 9
12 9 16 0 15 2 -2 21 -19 22 -19 22 3 10 41 -21 37 -11 -23 49 -53 55 -62 60
-91 55 -20 -4 -44 0 -63 10 l-31 16 7 -27z"/>
<path d="M1407 2517 c8 -16 40 -55 71 -86 68 -67 644 -511 674 -519 32 -8 16
11 -55 64 -77 59 -215 164 -417 319 -85 66 -185 149 -222 185 -49 49 -63 59
-51 37z"/>
<path d="M10633 2527 c12 -19 14 -27 5 -27 -16 -1 21 -30 37 -30 26 0 7 45
-26 65 l-34 20 18 -28z"/>
<path d="M9928 2530 c-10 -6 -18 -20 -18 -31 0 -18 6 -20 46 -17 31 2 51 9 58
20 5 9 8 19 6 22 -12 11 -77 15 -92 6z"/>
<path d="M11090 2505 c7 -8 10 -21 7 -29 -4 -10 0 -12 14 -9 20 5 19 6 -2 29
-25 26 -39 33 -19 9z"/>
<path d="M10563 2477 c1 -7 -10 -11 -28 -10 -29 2 -29 2 -5 -6 14 -5 40 -9 59
-10 27 -1 31 1 22 13 -15 18 -51 28 -48 13z"/>
<path d="M10968 2463 c-10 -2 -18 -9 -18 -15 0 -6 10 -8 22 -5 20 6 19 3 -6
-17 -29 -23 -29 -23 -14 -62 20 -49 41 -63 68 -46 11 6 28 12 39 12 10 0 21 7
25 15 7 18 32 20 39 3 4 -10 8 -9 16 2 9 13 11 13 11 -2 0 -10 -4 -18 -10 -18
-5 0 -10 -7 -10 -15 0 -8 -6 -12 -15 -9 -8 3 -29 -1 -46 -10 -26 -13 -34 -14
-41 -4 -8 14 -10 6 -13 -67 -1 -22 -5 -87 -9 -144 -8 -122 -2 -168 22 -168 9
0 20 5 25 11 5 8 10 7 16 -2 6 -9 19 -11 44 -7 29 6 38 4 43 -9 3 -9 10 -13
15 -10 5 3 9 -1 9 -8 1 -9 3 -9 9 2 8 14 24 328 21 409 -1 37 -42 132 -65 151
-11 9 -21 8 -46 -4 -33 -16 -56 -13 -29 5 11 6 5 8 -20 7 -19 -1 -42 1 -50 4
-8 3 -23 4 -32 1z m119 -198 c-4 -8 -11 -15 -17 -15 -14 0 -13 27 3 33 16 6
21 1 14 -18z m-42 -15 c3 -5 1 -10 -4 -10 -6 0 -11 5 -11 10 0 6 2 10 4 10 3
0 8 -4 11 -10z"/>
<path d="M10568 2424 c9 -8 28 -13 42 -13 17 1 19 3 7 6 -9 2 -15 8 -13 12 3
4 -8 8 -24 8 -26 0 -27 -2 -12 -13z"/>
<path d="M9340 2414 c0 -8 5 -12 10 -9 6 4 8 11 5 16 -9 14 -15 11 -15 -7z"/>
<path d="M10493 2415 c-9 -24 1 -27 15 -5 8 13 8 20 2 20 -6 0 -13 -7 -17 -15z"/>
<path d="M10105 2390 c-3 -5 -2 -10 4 -10 5 0 13 5 16 10 3 6 2 10 -4 10 -5 0
-13 -4 -16 -10z"/>
<path d="M9188 2383 c7 -3 16 -2 19 1 4 3 -2 6 -13 5 -11 0 -14 -3 -6 -6z"/>
<path d="M9140 2370 c0 -5 5 -10 10 -10 6 0 10 5 10 10 0 6 -4 10 -10 10 -5 0
-10 -4 -10 -10z"/>
<path d="M7750 2360 c-13 -8 -13 -10 2 -10 9 0 20 5 23 10 8 13 -5 13 -25 0z"/>
<path d="M9242 2346 c10 -7 15 -16 11 -19 -3 -4 -1 -7 6 -7 8 0 11 6 7 16 -3
9 -6 18 -6 20 0 2 -8 4 -17 4 -17 -1 -17 -1 -1 -14z"/>
<path d="M8560 2290 c-58 -26 -181 -82 -273 -125 -92 -43 -171 -75 -174 -71
-4 4 -2 16 5 27 11 17 6 15 -30 -8 -48 -30 -110 -84 -104 -91 3 -2 19 3 38 11
31 14 210 87 308 127 25 10 54 20 65 22 11 1 22 6 25 9 3 3 22 4 42 1 34 -4
36 -5 21 -21 -9 -9 -46 -34 -83 -56 -38 -22 -99 -59 -138 -83 -46 -28 -82 -43
-106 -44 -21 -1 -40 -7 -43 -14 -2 -7 -11 -10 -18 -8 -8 3 -22 1 -32 -5 -11
-6 -13 -11 -5 -11 30 0 -2 -20 -34 -20 -39 0 -45 -16 -10 -30 19 -7 40 -3 87
15 74 29 70 29 63 10 -5 -13 -1 -13 35 0 56 20 86 38 49 29 -21 -5 -28 -2 -28
9 0 32 79 81 250 153 96 42 179 80 185 85 6 6 5 13 -5 19 -12 8 -9 10 13 10
15 0 27 5 27 11 0 7 10 9 25 7 19 -4 25 -1 25 12 0 10 21 27 53 44 28 15 41
24 27 21 -14 -4 -45 -11 -69 -16 -25 -5 -50 -18 -58 -29 -8 -11 -23 -20 -33
-20 -20 0 -44 -32 -33 -44 3 -3 -6 -6 -20 -6 -21 0 -27 5 -27 21 0 12 4 18 11
13 8 -5 9 -2 1 12 -9 17 -3 23 46 51 82 47 44 39 -78 -17z"/>
<path d="M10234 2319 c-2 -4 -24 -11 -49 -15 -44 -6 -44 -6 -27 -29 13 -18 19
-20 27 -9 5 7 27 20 48 29 20 8 37 19 37 23 0 11 -29 11 -36 1z"/>
<path d="M9176 2313 c-10 -10 -7 -81 4 -88 6 -4 7 -12 3 -18 -12 -19 -14 -47
-3 -48 6 -1 15 -3 20 -4 6 -1 17 -3 26 -4 8 0 12 -6 9 -11 -4 -6 -15 -8 -26
-5 -10 4 -19 2 -19 -2 0 -14 62 -69 95 -85 31 -15 65 -13 65 3 0 4 11 3 25 -3
17 -8 22 -15 16 -21 -7 -7 -15 -6 -26 3 -13 10 -15 9 -15 -6 1 -23 67 -76 89
-72 15 3 21 31 47 211 4 31 3 47 -4 47 -6 0 -13 -9 -17 -19 -3 -12 -12 -18
-20 -15 -11 5 -12 0 -5 -26 6 -22 5 -38 -3 -51 -14 -23 -32 -25 -23 -3 4 10 0
18 -13 21 -12 3 -18 13 -17 29 0 13 4 24 9 24 4 0 7 5 7 11 0 5 -4 8 -8 5 -5
-3 -23 8 -40 25 -24 24 -40 30 -79 32 -34 1 -48 6 -49 17 -1 8 -2 20 -3 25 -1
14 -37 35 -45 28z m194 -206 c0 -8 -7 -14 -15 -14 -8 0 -15 6 -15 14 0 7 7 13
15 13 8 0 15 -6 15 -13z m40 -47 c13 -8 13 -10 -2 -10 -9 0 -20 5 -23 10 -8
13 5 13 25 0z"/>
<path d="M9314 2305 c11 -8 16 -15 11 -15 -4 0 2 -9 15 -20 12 -11 27 -17 31
-14 5 3 9 0 9 -5 0 -6 7 -11 15 -11 7 0 18 -6 22 -14 10 -18 28 -25 28 -11 1
12 -123 105 -139 105 -6 0 -2 -7 8 -15z"/>
<path d="M10088 2303 c7 -3 16 -2 19 1 4 3 -2 6 -13 5 -11 0 -14 -3 -6 -6z"/>
<path d="M7725 2273 c-3 -15 -12 -31 -18 -35 -9 -5 -9 -10 0 -19 10 -10 14 -7
22 13 5 15 15 29 20 33 16 9 13 35 -3 35 -8 0 -17 -12 -21 -27z"/>
<path d="M7834 2277 c-65 -28 -106 -58 -99 -75 2 -7 -1 -23 -7 -37 -11 -25
-11 -25 -30 -5 -10 11 -28 20 -39 20 -18 0 -21 5 -17 35 2 19 1 35 -3 35 -19
0 -31 -79 -34 -220 -2 -85 -1 -138 2 -117 2 20 8 37 14 37 9 0 11 -6 13 -54 1
-30 49 -77 63 -62 4 4 3 10 -3 14 -10 7 -12 49 -6 203 2 56 2 57 37 63 34 7
42 15 28 30 -13 12 -11 35 3 40 8 3 14 12 14 20 0 7 6 16 14 19 20 8 31 -45
16 -74 -11 -19 -10 -21 5 -16 9 4 21 7 26 7 25 0 49 42 49 84 0 25 5 48 10 51
12 7 14 25 3 24 -5 0 -31 -10 -59 -22z"/>
<path d="M10757 2279 c3 -11 16 -27 29 -36 13 -8 24 -24 24 -34 0 -11 5 -19
11 -19 7 0 9 9 5 23 -3 12 -6 25 -6 30 0 4 -7 7 -15 7 -8 0 -15 6 -15 13 0 7
-9 18 -19 24 -16 10 -18 9 -14 -8z"/>
<path d="M9580 2273 c1 -8 83 -63 105 -71 17 -6 -48 47 -77 63 -16 9 -28 12
-28 8z"/>
<path d="M10122 2268 c5 -15 28 -23 28 -10 0 5 -7 13 -16 16 -10 4 -14 1 -12
-6z"/>
<path d="M937 2259 c7 -7 15 -10 18 -7 3 3 -2 9 -12 12 -14 6 -15 5 -6 -5z"/>
<path d="M10040 2220 c0 -5 5 -10 10 -10 6 0 10 5 10 10 0 6 -4 10 -10 10 -5
0 -10 -4 -10 -10z"/>
<path d="M8700 2164 c-63 -30 -179 -85 -258 -121 -78 -36 -141 -68 -138 -70 2
-3 35 9 73 25 134 59 247 102 267 102 12 0 41 11 65 25 23 14 49 25 57 25 8 0
11 6 8 15 -4 8 -1 15 5 15 6 0 25 9 43 20 68 41 -7 19 -122 -36z"/>
<path d="M8980 2210 c0 -5 5 -10 10 -10 6 0 10 5 10 10 0 6 -4 10 -10 10 -5 0
-10 -4 -10 -10z"/>
<path d="M8900 2187 c-43 -15 -54 -47 -15 -47 15 0 24 4 20 10 -3 6 -1 10 5
10 7 0 23 9 37 20 22 17 23 20 7 19 -11 0 -35 -5 -54 -12z"/>
<path d="M9734 2168 c32 -30 57 -38 36 -13 -7 8 -17 15 -23 15 -6 0 -18 6 -27
13 -9 6 -3 0 14 -15z"/>
<path d="M10068 2193 c7 -3 16 -2 19 1 4 3 -2 6 -13 5 -11 0 -14 -3 -6 -6z"/>
<path d="M9665 2159 c-4 -6 2 -13 14 -16 12 -3 21 -9 21 -14 0 -5 -6 -6 -14
-3 -8 3 -17 1 -21 -5 -3 -6 -2 -11 3 -11 5 0 25 -16 45 -35 37 -36 67 -38 67
-6 0 26 -10 32 -34 19 -19 -10 -20 -10 -8 5 14 17 7 41 -9 32 -5 -4 -9 -3 -9
2 -1 16 -48 44 -55 32z"/>
<path d="M8800 2128 c0 -4 9 -8 19 -8 11 0 23 -4 26 -10 3 -5 12 -10 18 -10 7
0 4 5 -6 11 -9 6 -15 14 -12 20 4 5 -5 8 -19 7 -15 -1 -26 -6 -26 -10z"/>
<path d="M9524 2129 c-3 -6 -1 -16 5 -22 14 -14 14 -30 0 -22 -7 5 -9 -5 -7
-26 2 -22 8 -33 16 -31 9 2 11 -4 7 -18 -5 -14 -2 -20 10 -20 8 0 19 -10 24
-22 10 -25 56 -63 96 -78 45 -17 33 -29 -91 -94 -47 -25 -79 -48 -80 -58 -2
-19 -27 -48 -41 -48 -4 0 -21 -7 -38 -16 -16 -9 -41 -17 -55 -19 -13 -1 -26
-8 -28 -14 -2 -6 -12 -11 -23 -11 -10 0 -19 -4 -19 -8 0 -5 -16 -14 -35 -22
-34 -13 -48 -40 -21 -40 7 0 68 28 136 62 106 54 124 60 134 47 6 -9 17 -14
24 -11 10 3 10 7 1 18 -8 10 -8 14 0 15 20 2 26 5 49 18 13 7 26 10 29 8 2 -3
-5 -10 -16 -17 -12 -6 -21 -14 -21 -19 0 -5 39 11 87 35 48 24 93 44 100 44
21 0 15 25 -11 49 -16 15 -25 19 -28 10 -2 -7 -10 -9 -16 -5 -20 12 -13 24 13
24 34 0 44 11 22 24 -14 7 -17 17 -12 39 11 49 -4 127 -25 134 -10 3 -35 17
-54 30 -71 48 -125 74 -132 64z"/>
<path d="M2566 2121 c-7 -11 73 -65 82 -55 4 4 1 9 -6 11 -7 3 -26 16 -42 29
-16 14 -31 20 -34 15z"/>
<path d="M7864 2106 c-10 -8 -16 -17 -13 -20 3 -4 17 2 30 13 27 23 13 28 -17
7z"/>
<path d="M9140 2112 c0 -4 -20 -14 -45 -21 -25 -7 -48 -17 -51 -22 -9 -15 6
-49 23 -49 9 0 13 6 9 15 -4 10 10 24 44 43 28 16 47 32 43 35 -9 9 -23 9 -23
-1z"/>
<path d="M7707 2093 c-4 -3 -7 -13 -7 -22 1 -13 3 -12 11 3 9 14 13 16 20 5 4
-7 11 -10 16 -6 4 5 1 12 -7 17 -18 12 -25 12 -33 3z"/>
<path d="M8708 2085 c-15 -6 -37 -20 -50 -32 -13 -12 -45 -31 -73 -43 -27 -12
-59 -30 -70 -40 -20 -19 -141 -90 -160 -94 -5 -2 -27 -6 -47 -10 -21 -5 -36
-12 -33 -16 3 -5 -3 -6 -14 -3 -10 3 -22 -1 -26 -8 -6 -8 -4 -10 6 -4 8 5 7 0
-3 -12 -31 -34 -22 -45 20 -27 57 25 73 28 81 15 6 -9 19 -6 52 8 33 14 38 20
22 20 -27 1 -29 15 -5 40 33 33 77 58 192 105 172 72 230 98 230 105 0 11 -94
8 -122 -4z"/>
<path d="M8960 2088 c-37 -17 -312 -143 -413 -190 -94 -44 -116 -64 -26 -24
150 67 249 104 294 111 60 8 139 51 131 71 -5 12 3 17 24 16 3 0 11 6 18 14
15 16 7 17 -28 2z"/>
<path d="M9865 2080 c3 -5 8 -10 11 -10 2 0 4 5 4 10 0 6 -5 10 -11 10 -5 0
-7 -4 -4 -10z"/>
<path d="M7760 2061 c0 -6 5 -13 11 -17 6 -3 8 -17 5 -30 -8 -30 6 -31 19 -2
12 26 42 40 32 14 -4 -9 -2 -16 4 -16 13 0 22 26 16 44 -5 12 -13 13 -36 6
-19 -5 -31 -5 -31 1 0 5 -4 9 -10 9 -5 0 -10 -4 -10 -9z"/>
<path d="M7897 2063 c-31 -5 -46 -28 -29 -45 8 -8 15 -8 26 1 8 7 19 10 23 8
5 -3 10 5 11 19 1 13 1 23 -1 23 -1 -1 -15 -4 -30 -6z"/>
<path d="M1250 2016 c0 -2 8 -10 18 -17 15 -13 16 -12 3 4 -13 16 -21 21 -21
13z"/>
<path d="M8965 2006 c-5 -8 -19 -16 -30 -18 -11 -2 -22 -5 -25 -8 -12 -13
-133 -59 -141 -54 -5 3 -9 1 -9 -3 0 -5 -15 -17 -32 -27 -28 -17 -103 -86 -92
-86 5 0 344 149 362 159 10 6 9 12 -5 30 -15 18 -20 19 -28 7z"/>
<path d="M10880 2010 c0 -6 7 -10 15 -10 8 0 15 2 15 4 0 2 -7 6 -15 10 -8 3
-15 1 -15 -4z"/>
<path d="M7904 1996 c-17 -8 -23 -21 -27 -65 -3 -31 -8 -64 -12 -73 -6 -15 -2
-18 20 -18 22 0 26 -4 23 -22 -2 -15 -9 -22 -21 -22 -22 2 -22 2 8 -30 l25
-27 0 70 c0 73 11 91 49 86 9 -1 10 0 3 2 -7 3 -9 10 -5 16 4 8 1 7 -9 -1 -12
-10 -21 -10 -42 -1 -31 15 -31 15 -5 58 23 38 22 41 -7 27z"/>
<path d="M9025 1990 c-3 -5 -2 -10 4 -10 5 0 13 5 16 10 3 6 2 10 -4 10 -5 0
-13 -4 -16 -10z"/>
<path d="M1290 1986 c0 -2 8 -10 18 -17 15 -13 16 -12 3 4 -13 16 -21 21 -21
13z"/>
<path d="M7818 1985 c-8 -9 16 -95 27 -92 5 2 11 25 13 50 3 40 0 47 -16 47
-10 0 -21 -2 -24 -5z"/>
<path d="M9295 1978 c-16 -6 -45 -17 -63 -24 -41 -18 -56 -18 -49 0 4 10 0 12
-14 9 -14 -4 -18 -11 -13 -25 5 -17 4 -18 -15 -6 -27 16 -26 24 2 33 13 4 17
8 10 11 -7 3 -48 -11 -90 -32 -43 -20 -152 -71 -243 -113 -91 -43 -174 -82
-185 -89 -39 -23 -5 -11 72 23 50 23 86 34 101 30 12 -3 20 -10 17 -15 -7 -11
52 8 81 27 11 7 24 10 27 7 4 -4 13 -1 22 6 12 10 15 10 15 -2 0 -8 -22 -24
-49 -36 -27 -12 -60 -33 -73 -46 -25 -27 -176 -106 -203 -106 -19 0 -73 -26
-97 -47 -11 -10 -18 -11 -23 -4 -12 20 -25 11 -25 -15 0 -21 3 -24 14 -15 7 6
20 9 28 6 8 -3 29 1 48 9 30 12 36 12 45 -1 10 -13 30 -8 146 42 74 31 148 61
164 67 17 6 39 15 50 21 13 7 20 6 23 -2 2 -6 18 -11 35 -11 23 0 28 -3 17 -9
-8 -6 -18 -7 -23 -4 -5 3 -8 0 -5 -7 8 -24 -85 -100 -120 -100 -12 0 -22 -4
-22 -9 0 -11 -56 -32 -64 -24 -3 3 -11 2 -18 -4 -7 -5 -32 -15 -55 -23 -24 -7
-43 -16 -44 -19 0 -3 -2 -16 -5 -29 -3 -20 -1 -22 24 -17 36 8 122 47 122 55
0 24 152 103 405 212 84 36 99 48 61 48 -15 0 -25 4 -21 10 3 6 15 10 26 10
11 0 27 6 35 14 7 8 23 12 34 9 13 -3 20 0 20 9 0 7 20 24 45 38 48 26 54 35
31 43 -26 10 -117 -43 -195 -113 -34 -31 -58 -29 -36 3 8 12 15 32 15 44 0 14
6 23 15 23 9 0 26 10 38 21 l22 21 -25 -7 c-14 -4 -83 -35 -155 -70 -219 -107
-368 -176 -408 -191 -38 -13 -38 -13 -31 9 3 12 7 22 8 23 0 0 17 12 36 26 19
14 103 56 185 93 83 37 154 70 158 75 5 4 -5 10 -22 12 -16 2 -28 1 -25 -4 3
-4 -1 -8 -9 -8 -15 0 -33 30 -19 30 4 0 16 7 26 15 15 11 17 17 7 29 -23 28 9
29 35 1 22 -24 22 -26 4 -20 -14 5 -20 2 -20 -9 0 -9 9 -16 20 -16 11 0 20 -4
20 -10 0 -15 27 -12 44 5 8 9 18 16 21 15 33 -2 37 0 25 15 -11 13 -10 18 6
30 10 8 22 15 26 15 4 0 24 11 44 25 39 27 37 29 -11 13z m-120 -98 c3 -5 1
-10 -4 -10 -6 0 -11 5 -11 10 0 6 2 10 4 10 3 0 8 -4 11 -10z m-340 -70 c-3
-5 -12 -10 -18 -10 -7 0 -6 4 3 10 19 12 23 12 15 0z m305 -100 c0 -5 -12 -10
-27 -10 -22 0 -25 2 -13 10 20 13 40 13 40 0z m-470 -125 c-7 -9 -15 -13 -17
-11 -7 7 7 26 19 26 6 0 6 -6 -2 -15z"/>
<path d="M9819 1963 c-6 -16 -11 -49 -11 -76 0 -32 -5 -50 -16 -56 -13 -7 -12
-10 7 -21 21 -10 22 -10 17 8 -4 11 -1 24 8 31 9 8 14 32 13 76 0 36 -2 65 -4
65 -2 0 -8 -12 -14 -27z"/>
<path d="M10833 1968 c-29 -30 -34 -124 -7 -114 9 3 20 6 25 6 5 0 9 9 9 19 0
11 5 23 10 26 13 8 13 55 1 55 -5 0 -11 7 -13 16 -2 13 -7 11 -25 -8z"/>
<path d="M7781 1964 c0 -11 3 -14 6 -6 3 7 2 16 -1 19 -3 4 -6 -2 -5 -13z"/>
<path d="M8820 1970 c0 -5 5 -10 11 -10 5 0 7 5 4 10 -3 6 -8 10 -11 10 -2 0
-4 -4 -4 -10z"/>
<path d="M7782 1920 c0 -14 2 -19 5 -12 2 6 2 18 0 25 -3 6 -5 1 -5 -13z"/>
<path d="M7717 1914 c-11 -11 -8 -64 3 -64 6 0 13 7 17 16 7 18 -9 58 -20 48z"/>
<path d="M10409 1870 c-5 -58 -4 -70 9 -54 4 5 5 32 2 59 l-6 50 -5 -55z"/>
<path d="M8098 1890 c-40 -21 -57 -40 -36 -40 7 1 29 14 48 30 40 35 38 36
-12 10z"/>
<path d="M7780 1880 c0 -5 5 -10 11 -10 5 0 7 5 4 10 -3 6 -8 10 -11 10 -2 0
-4 -4 -4 -10z"/>
<path d="M10320 1864 c0 -28 9 -35 31 -23 22 11 26 34 5 26 -7 -3 -19 0 -25 6
-8 8 -11 6 -11 -9z"/>
<path d="M10630 1859 c-28 -11 -60 -38 -60 -50 0 -4 16 -11 35 -15 31 -6 33
-7 19 -22 -15 -14 -14 -16 7 -24 12 -5 28 -7 35 -4 17 6 37 80 24 84 -6 2 -10
12 -10 23 0 21 -12 23 -50 8z"/>
<path d="M1475 1840 c10 -11 20 -20 23 -20 3 0 -3 9 -13 20 -10 11 -20 20 -23
20 -3 0 3 -9 13 -20z"/>
<path d="M1510 1816 c0 -2 8 -10 18 -17 15 -13 16 -12 3 4 -13 16 -21 21 -21
13z"/>
<path d="M7650 1750 c0 -64 -9 -74 -34 -38 -9 12 -16 17 -16 11 0 -15 58 -61
185 -149 l100 -69 -40 47 c-22 26 -52 50 -66 53 -30 7 -79 57 -79 80 0 21 34
37 48 23 9 -9 15 -9 24 0 10 10 10 15 -2 23 -8 5 -23 7 -32 5 -12 -3 -18 2
-18 13 0 19 -40 61 -58 61 -8 0 -12 -20 -12 -60z"/>
<path d="M8066 1778 c9 -30 12 -34 24 -22 14 14 2 44 -17 44 -10 0 -12 -6 -7
-22z"/>
<path d="M7820 1776 c0 -9 5 -16 10 -16 6 0 10 4 10 9 0 6 -4 13 -10 16 -5 3
-10 -1 -10 -9z"/>
<path d="M8560 1780 c-8 -5 -12 -12 -9 -15 4 -3 12 1 19 10 14 17 11 19 -10 5z"/>
<path d="M8038 1760 c-7 -24 -3 -38 8 -28 3 4 4 17 2 30 l-3 23 -7 -25z"/>
<path d="M8241 1759 c-13 -11 -21 -23 -17 -26 4 -4 19 5 34 20 31 31 19 36
-17 6z"/>
<path d="M9365 1760 c-3 -5 -2 -10 4 -10 5 0 13 5 16 10 3 6 2 10 -4 10 -5 0
-13 -4 -16 -10z"/>
<path d="M8475 1744 c-27 -7 -56 -11 -64 -9 -8 3 -23 2 -35 -1 -20 -7 -20 -7
3 -16 19 -7 21 -11 11 -23 -20 -24 -6 -28 35 -10 21 8 41 12 44 9 3 -4 0 -9
-7 -11 -6 -3 -10 -9 -7 -13 8 -13 55 11 55 27 0 8 7 25 16 38 18 28 18 28 -51
9z"/>
<path d="M9769 1742 c-11 -2 -15 -10 -12 -23 4 -14 0 -19 -15 -19 -12 0 -24
-5 -28 -12 -8 -13 64 -4 78 10 13 13 -5 48 -23 44z"/>
<path d="M7896 1705 c20 -19 40 -35 43 -35 3 0 22 -14 41 -30 34 -30 35 -30
38 -8 5 32 -77 95 -115 89 -6 -1 -14 3 -18 9 -3 5 -11 10 -16 10 -6 0 6 -16
27 -35z"/>
<path d="M10335 1708 c-7 -20 -24 -102 -25 -115 0 -18 10 -16 49 8 37 22 37
38 -1 18 -21 -11 -22 -11 -9 4 7 10 19 17 26 17 7 0 19 7 26 17 13 15 12 15
-8 5 -39 -21 -52 -15 -48 23 3 35 -2 46 -10 23z"/>
<path d="M11165 1705 c-19 -10 -22 -13 -7 -9 16 4 22 1 22 -10 0 -10 -9 -16
-21 -16 -15 0 -19 -5 -15 -15 3 -9 0 -15 -8 -15 -8 0 -13 -8 -12 -17 0 -10 -5
-18 -11 -19 -7 -1 -17 -2 -21 -3 -14 -2 -12 -49 3 -61 8 -7 24 -10 35 -7 11 3
18 1 14 -4 -3 -5 2 -9 10 -9 9 0 16 -6 16 -12 1 -36 21 30 30 99 6 43 13 86
16 96 6 21 -10 21 -51 2z"/>
<path d="M8153 1686 c3 -8 1 -17 -6 -20 -7 -2 -2 -5 9 -5 21 -1 39 21 27 33
-13 12 -35 6 -30 -8z"/>
<path d="M8076 1674 c-8 -21 -8 -39 1 -30 8 7 15 46 9 46 -2 0 -7 -7 -10 -16z"/>
<path d="M1690 1676 c0 -2 8 -10 18 -17 15 -13 16 -12 3 4 -13 16 -21 21 -21
13z"/>
<path d="M7770 1672 c0 -8 8 -14 83 -63 26 -17 47 -39 47 -48 0 -9 7 -26 15
-37 21 -28 18 -36 -7 -24 -61 30 30 -30 105 -69 79 -41 81 -42 54 -14 -15 16
-24 33 -20 38 5 4 0 5 -10 2 -11 -4 -16 -3 -12 4 14 22 108 -34 118 -71 6 -22
-12 -27 -31 -8 -7 7 -12 8 -12 3 1 -10 24 -27 340 -253 461 -331 462 -332 506
-332 74 0 164 43 139 68 -3 3 -5 0 -5 -6 0 -6 -10 -16 -22 -23 -18 -10 -20 -9
-14 6 3 10 1 25 -6 33 -11 13 -10 15 5 9 14 -5 17 -1 17 22 0 43 11 91 21 91
5 0 9 -27 9 -60 0 -33 2 -60 4 -60 5 0 158 49 176 57 8 3 24 8 35 10 11 2 69
24 129 48 l109 44 201 -139 c212 -148 232 -156 300 -130 24 9 26 14 26 69 0
33 5 72 10 86 9 25 14 27 53 23 35 -4 60 3 147 43 58 26 116 50 130 54 l25 8
-27 -26 c-35 -32 -35 -45 -3 -53 16 -4 24 -12 23 -23 -2 -10 3 -15 12 -13 23
5 694 312 704 322 5 6 4 15 -3 24 -8 9 -12 39 -11 73 3 81 5 78 -42 93 -59 18
-61 20 -48 35 7 8 9 19 5 25 -8 13 -35 13 -35 -1 0 -5 -5 -7 -11 -3 -6 4 -9
31 -7 70 2 35 2 64 0 64 -6 0 -78 -40 -93 -52 -25 -21 -36 -50 -38 -102 -2
-66 -13 -85 -31 -51 -9 17 -19 24 -29 19 -9 -4 -26 -9 -38 -11 -14 -3 -23 -13
-23 -24 0 -22 -37 -50 -56 -42 -8 3 -14 0 -14 -6 0 -6 -12 -11 -26 -11 -14 0
-22 -4 -19 -10 4 -6 -10 -8 -37 -6 -56 5 -55 5 -38 17 11 7 4 8 -26 4 -28 -4
-44 -2 -50 6 -4 7 -3 10 4 5 6 -3 14 0 19 7 9 15 169 97 190 97 7 0 13 4 13 8
0 5 22 19 50 32 77 36 50 36 -37 0 -78 -33 -367 -171 -433 -208 -19 -11 -74
-34 -122 -52 -99 -37 -109 -36 -202 24 -31 20 -63 36 -72 36 -8 0 -22 7 -30
15 -9 8 -12 15 -8 15 3 0 1 7 -6 15 -7 8 -19 15 -27 15 -12 0 -103 -39 -175
-76 -27 -14 -28 -14 -17 9 11 25 92 67 159 84 28 7 35 14 35 33 0 19 -5 24
-20 22 -17 -3 -16 0 7 20 32 26 33 35 19 196 -1 14 -5 13 -21 -8 -11 -14 -20
-30 -20 -37 0 -11 -59 -61 -106 -89 -11 -7 -16 -15 -13 -18 4 -4 39 9 78 28
39 20 73 36 75 36 3 0 -1 -12 -9 -27 -19 -36 -126 -93 -148 -79 -12 8 -23 7
-37 -2 -29 -17 -39 -15 -33 9 5 19 4 19 -30 -4 -42 -28 -79 -43 -128 -51 -20
-4 -44 -15 -54 -26 -10 -11 -26 -20 -35 -20 -9 0 -21 -5 -27 -11 -6 -6 -19
-12 -29 -13 -11 -2 -19 -8 -19 -14 0 -6 -3 -14 -7 -18 -16 -16 13 -32 42 -24
30 9 131 60 140 71 9 12 85 47 105 49 56 6 55 -3 -5 -29 -185 -80 -240 -111
-240 -134 0 -5 11 -6 25 -3 37 9 30 -1 -11 -19 -39 -16 -79 -11 -88 11 -4 11
-2 11 13 2 10 -6 26 -8 35 -5 14 5 15 11 6 27 -6 11 -17 20 -24 20 -8 0 -19 7
-26 15 -11 13 -14 12 -26 -11 -8 -14 -14 -35 -14 -45 0 -10 -4 -21 -10 -24
-17 -10 -11 47 7 67 15 17 15 18 -3 18 -23 0 -36 -9 -50 -34 -6 -11 -16 -22
-24 -24 -7 -3 -10 0 -6 7 8 12 18 131 12 131 -2 0 -20 -16 -39 -35 -25 -25
-44 -35 -66 -35 -31 0 -69 -16 -83 -35 -4 -5 -8 -21 -8 -34 0 -18 4 -22 20
-18 11 3 20 1 20 -3 0 -4 9 -6 20 -3 12 3 28 -2 38 -10 11 -10 27 -14 40 -10
18 4 21 2 16 -11 -3 -9 -18 -19 -33 -22 -14 -3 -43 -12 -63 -21 -20 -9 -45
-13 -56 -11 -29 8 -51 -13 -41 -40 10 -26 44 -29 104 -7 54 19 83 19 88 -2 4
-13 5 -12 6 5 1 23 4 25 56 37 27 6 28 8 10 15 -12 4 -23 3 -27 -4 -6 -8 -8
-8 -8 0 0 6 8 18 18 26 19 17 72 30 72 18 0 -4 15 -11 34 -14 35 -7 48 -2 200
68 83 39 116 45 41 7 -40 -20 -44 -25 -34 -43 8 -15 8 -19 0 -14 -6 4 -11 3
-11 -3 0 -6 -7 -7 -17 -4 -11 4 -14 3 -9 -6 5 -8 3 -11 -5 -10 -8 2 -32 -3
-53 -10 l-39 -14 29 -12 c23 -10 34 -10 57 2 30 15 36 7 10 -13 -10 -7 -32
-14 -50 -14 -22 0 -37 -8 -50 -26 -17 -23 -22 -25 -42 -14 -19 9 -26 9 -40 -4
-22 -20 -31 -12 -31 31 0 38 1 38 -45 19 -27 -12 -35 -21 -35 -40 0 -30 -18
-41 -109 -67 -106 -31 -126 -27 -222 39 -53 37 -85 66 -87 80 -2 11 -10 26
-18 33 -12 10 -13 9 -8 -5 9 -23 2 -21 -67 24 -63 41 -91 46 -49 10 30 -26 18
-38 -15 -16 -16 11 -24 23 -21 32 7 20 -55 77 -114 106 -24 12 -57 34 -74 50
-16 15 -34 28 -41 28 -7 0 -18 7 -25 15 -7 8 -17 15 -22 15 -6 0 -5 -7 2 -15
10 -11 10 -19 2 -27 -7 -7 -18 -3 -36 15 -27 27 -36 54 -13 41 8 -5 8 -3 -2 9
-7 9 -17 15 -21 12 -4 -2 -13 6 -20 19 -14 28 -46 39 -71 26 -19 -11 -69 22
-69 45 0 17 -93 81 -98 67 -3 -10 -31 -5 -42 7 -3 4 -22 18 -42 34 -36 27 -58
34 -58 19z m1995 -250 c-3 -3 -11 0 -18 7 -9 10 -8 11 6 5 10 -3 15 -9 12 -12z
m-1460 -73 c11 -17 -1 -21 -15 -4 -8 9 -8 15 -2 15 6 0 14 -5 17 -11z m2165 2
c0 -4 11 -6 25 -3 15 2 25 0 25 -7 0 -6 -7 -12 -15 -12 -8 -1 -22 -2 -30 -3
-8 0 -15 3 -14 9 0 5 -8 12 -18 16 -16 7 -15 8 5 8 12 1 22 -3 22 -8z m-40
-27 c0 -14 -3 -14 -15 -4 -8 7 -15 14 -15 16 0 2 7 4 15 4 8 0 15 -7 15 -16z
m-2042 -31 c9 -9 10 -13 2 -13 -22 0 -50 21 -50 37 0 16 11 11 48 -24z m1406
10 c8 -21 -3 -31 -13 -14 -5 7 -14 10 -20 7 -11 -7 -16 16 -5 27 9 9 32 -3 38
-20z m-73 -15 c-6 -16 -17 -23 -35 -23 -29 -1 -57 -36 -69 -87 -11 -43 -37
-36 -37 10 0 31 4 39 29 50 22 10 28 18 24 33 -5 19 -3 21 24 15 21 -5 34 -2
43 9 19 22 31 18 21 -7z m1333 -7 c7 -11 -84 -71 -106 -71 -11 0 -14 6 -11 19
4 15 47 39 110 60 1 1 4 -3 7 -8z m-2062 -23 c-7 -7 -12 -8 -12 -2 0 14 12 26
19 19 2 -3 -1 -11 -7 -17z m618 8 c-8 -7 -28 -18 -45 -24 -16 -5 -47 -17 -67
-26 -63 -27 -43 -2 25 31 68 34 113 44 87 19z m-498 -79 c-9 -18 -24 12 -16
34 l8 24 6 -25 c4 -14 5 -29 2 -33z m1048 16 l-1 -38 -18 23 c-22 25 -32 27
-49 10 -15 -15 -49 -20 -56 -9 -3 5 3 11 14 14 11 3 20 0 20 -6 0 -9 2 -9 8
-1 5 9 52 34 80 43 1 1 2 -16 2 -36z m-1018 5 c-7 -7 -12 -8 -12 -2 0 14 12
26 19 19 2 -3 -1 -11 -7 -17z m657 -32 c-2 -2 -14 -9 -26 -15 -19 -10 -22 -9
-17 4 4 8 15 15 27 15 11 0 18 -2 16 -4z m-329 -11 c0 -2 -10 -10 -22 -16 -21
-11 -22 -11 -9 4 13 16 31 23 31 12z m408 -16 c3 -17 -64 -67 -75 -56 -3 4 -2
22 1 42 7 33 10 36 39 33 20 -2 33 -9 35 -19z m169 -1 c-3 -8 -6 -5 -6 6 -1
11 2 17 5 13 3 -3 4 -12 1 -19z m-1102 -38 c3 -5 -1 -10 -10 -10 -9 0 -13 5
-10 10 3 6 8 10 10 10 2 0 7 -4 10 -10z m734 7 c-14 -11 -89 -36 -84 -27 3 5
13 10 21 10 8 0 14 5 14 10 0 6 12 10 27 10 14 0 24 -2 22 -3z m-959 -47 c13
-8 13 -10 -2 -10 -9 0 -20 5 -23 10 -8 13 5 13 25 0z m83 -72 c3 -11 0 -18 -9
-18 -8 0 -14 7 -14 16 0 9 -10 25 -22 36 l-23 19 32 -17 c17 -10 34 -26 36
-36z m451 10 c-6 -9 -40 -5 -50 4 -15 15 7 26 30 15 13 -7 22 -15 20 -19z
m-212 -63 c-2 -19 -6 -35 -8 -35 -2 0 -4 16 -4 35 0 19 4 35 8 35 4 0 6 -16 4
-35z"/>
<path d="M8110 1665 c0 -8 5 -15 10 -15 6 0 10 7 10 15 0 8 -4 15 -10 15 -5 0
-10 -7 -10 -15z"/>
<path d="M8403 1640 c-22 -20 -26 -28 -15 -27 20 2 64 44 54 51 -4 2 -21 -9
-39 -24z"/>
<path d="M9729 1649 c-11 -11 -18 -23 -15 -26 7 -8 56 25 56 37 0 16 -19 11
-41 -11z"/>
<path d="M8240 1650 c0 -5 5 -10 11 -10 5 0 7 5 4 10 -3 6 -8 10 -11 10 -2 0
-4 -4 -4 -10z"/>
<path d="M1730 1646 c0 -2 8 -10 18 -17 15 -13 16 -12 3 4 -13 16 -21 21 -21
13z"/>
<path d="M10120 1624 c-13 -33 -13 -34 6 -34 10 0 14 6 11 14 -3 8 1 17 9 20
19 7 18 26 -1 26 -9 0 -20 -12 -25 -26z"/>
<path d="M9916 1629 c3 -6 1 -15 -7 -19 -10 -7 -10 -12 1 -25 13 -16 15 -15
22 11 8 29 3 44 -13 44 -6 0 -7 -5 -3 -11z"/>
<path d="M8067 1603 c-9 -8 12 -33 28 -33 7 0 15 -7 19 -15 7 -18 26 -20 26
-2 0 15 -36 48 -44 40 -3 -4 -6 -1 -6 5 0 13 -13 16 -23 5z"/>
<path d="M8326 1564 c-9 -22 -8 -24 9 -18 8 4 15 12 15 20 0 19 -16 18 -24 -2z"/>
<path d="M8282 1540 c0 -14 2 -19 5 -12 2 6 2 18 0 25 -3 6 -5 1 -5 -13z"/>
<path d="M9290 1550 c-13 -8 -13 -10 2 -10 9 0 20 5 23 10 8 13 -5 13 -25 0z"/>
<path d="M10104 1538 c-19 -21 -19 -21 1 -13 11 4 30 10 43 12 34 8 37 23 4
23 -17 0 -37 -9 -48 -22z"/>
<path d="M8589 1535 c-28 -15 -44 -41 -30 -49 4 -3 23 10 41 29 36 37 32 43
-11 20z"/>
<path d="M9450 1525 c-36 -13 -73 -28 -82 -34 -10 -6 -25 -11 -33 -11 -8 0
-15 -4 -15 -10 0 -5 -7 -10 -15 -10 -10 0 -15 -10 -15 -30 0 -23 5 -30 19 -30
10 0 24 7 32 16 7 8 21 13 31 11 10 -3 18 -1 18 4 0 6 17 18 38 27 21 9 48 27
60 38 13 12 31 21 40 19 9 -1 11 0 4 2 -10 4 -10 8 -1 19 16 20 -2 17 -81 -11z"/>
<path d="M9370 1520 c-20 -11 -28 -19 -19 -20 9 0 27 9 40 20 30 24 24 24 -21
0z"/>
<path d="M8370 1509 c0 -11 5 -17 10 -14 6 3 10 13 10 21 0 8 -4 14 -10 14 -5
0 -10 -9 -10 -21z"/>
<path d="M1940 1481 c44 -40 270 -213 270 -208 0 5 -264 213 -290 230 -8 5 1
-5 20 -22z"/>
<path d="M10196 1484 c-3 -9 -6 -36 -6 -62 0 -42 1 -44 14 -26 8 10 18 19 23
19 48 3 63 34 34 69 -17 21 -57 21 -65 0z"/>
<path d="M8404 1475 c-9 -22 1 -29 15 -11 8 10 9 16 1 21 -5 3 -13 -1 -16 -10z"/>
<path d="M8577 1434 c-8 -8 1 -24 14 -24 5 0 9 7 9 15 0 15 -12 20 -23 9z"/>
<path d="M8785 1430 c-11 -4 -36 -22 -54 -39 -19 -17 -52 -36 -73 -42 -33 -8
-38 -14 -38 -40 l0 -30 30 16 c17 9 30 13 30 11 0 -9 50 41 51 50 0 5 21 26
45 47 45 37 47 43 9 27z"/>
<path d="M8971 1428 c-25 -7 -31 -12 -22 -21 8 -8 19 -7 43 4 39 19 26 29 -21
17z"/>
<path d="M8547 1423 c-4 -3 -7 -18 -6 -32 1 -26 1 -25 10 3 9 31 7 41 -4 29z"/>
<path d="M9174 1415 c3 -8 1 -17 -4 -20 -13 -8 -13 -35 0 -35 8 0 40 50 40 62
0 2 -9 4 -21 5 -14 1 -19 -3 -15 -12z"/>
<path d="M8396 1371 c-4 -7 -5 -15 -2 -18 9 -9 19 4 14 18 -4 11 -6 11 -12 0z"/>
<path d="M8515 1350 c10 -11 20 -20 23 -20 3 0 -3 9 -13 20 -10 11 -20 20 -23
20 -3 0 3 -9 13 -20z"/>
<path d="M8580 1355 c0 -7 -7 -18 -16 -23 -15 -8 -15 -11 4 -30 11 -11 23 -18
26 -14 10 10 7 82 -4 82 -5 0 -10 -7 -10 -15z"/>
<path d="M8420 1330 c0 -5 5 -10 11 -10 5 0 7 5 4 10 -3 6 -8 10 -11 10 -2 0
-4 -4 -4 -10z"/>
<path d="M8860 1333 c0 -5 5 -15 10 -23 7 -12 12 -12 22 -2 10 10 10 15 -2 22
-18 12 -30 13 -30 3z"/>
<path d="M8510 1280 c-21 -6 -22 -8 -7 -14 43 -15 47 -15 47 4 0 21 -2 22 -40
10z"/>
<path d="M8800 1248 c0 -67 -5 -83 -23 -80 -10 2 -17 -3 -17 -13 0 -8 -4 -15
-10 -15 -5 0 -10 -4 -10 -10 0 -18 40 -10 52 10 7 11 20 20 30 20 34 0 48 12
48 42 0 39 -18 71 -36 64 -8 -3 -14 -1 -14 4 0 6 -4 10 -10 10 -5 0 -9 -15
-10 -32z"/>
<path d="M2220 1266 c0 -2 8 -10 18 -17 15 -13 16 -12 3 4 -13 16 -21 21 -21
13z"/>
<path d="M8579 1268 c-1 -2 -3 -15 -5 -30 -3 -29 18 -48 52 -48 15 0 15 3 -4
23 -12 13 -22 28 -22 35 0 10 -18 28 -21 20z"/>
<path d="M2275 1220 c10 -11 20 -20 23 -20 3 0 -3 9 -13 20 -10 11 -20 20 -23
20 -3 0 3 -9 13 -20z"/>
<path d="M8680 1236 c0 -2 7 -7 16 -10 8 -3 12 -2 9 4 -6 10 -25 14 -25 6z"/>
<path d="M2310 1196 c0 -2 8 -10 18 -17 15 -13 16 -12 3 4 -13 16 -21 21 -21
13z"/>
<path d="M2350 1166 c0 -2 8 -10 18 -17 15 -13 16 -12 3 4 -13 16 -21 21 -21
13z"/>
<path d="M2400 1126 c0 -2 8 -10 18 -17 15 -13 16 -12 3 4 -13 16 -21 21 -21
13z"/>
<path d="M2440 1096 c0 -2 8 -10 18 -17 15 -13 16 -12 3 4 -13 16 -21 21 -21
13z"/>
<path d="M10090 861 c-5 -11 -10 -27 -10 -36 0 -13 5 -12 30 7 17 12 30 28 30
35 0 20 -38 15 -50 -6z"/>
</g>
</svg>
